<svg xmlns="http://www.w3.org/2000/svg" viewBox="0 0 960 540" role="img" font-family="Atkinson Hyperlegible Next, Atkinson Hyperlegible, Verdana, sans-serif">
<title>Satu beg, banyak makna</title>
<desc>Sebuah beg anyaman dengan corak segi tiga. Seorang penjual, seorang pemilik dan sebuah kumpulan kraf masing-masing menyatakan makna beg itu bagi mereka, dan label muzium di bawahnya ada tanda soal.</desc>
<rect x="0" y="0" width="960" height="540" rx="24" fill="#FDE0E8"/>
<path d="M410,158 C410,70 550,70 550,158" fill="none" stroke="#0F0E0E" stroke-width="15" stroke-linecap="round"/><path d="M410,158 C410,70 550,70 550,158" fill="none" stroke="#A07850" stroke-width="8" stroke-linecap="round"/><path d="M388,150 H572 L584,318 Q585,334 569,334 H391 Q375,334 376,318 Z" fill="#F3E3C3" stroke="#0F0E0E" stroke-width="4" stroke-linejoin="round"/><path d="M394,178 H566 M394,190 H566 M392,270 H568 M392,282 H568" stroke="#8C2548" stroke-width="4"/><path d="M392,252 L414,208 L436,252 Z M436,252 L458,208 L480,252 Z M480,252 L502,208 L524,252 Z M524,252 L546,208 L568,252 Z " fill="#8C2548"/><path d="M392,298 L414,298 L403,318 Z M414,298 L436,298 L425,318 Z M436,298 L458,298 L447,318 Z M458,298 L480,298 L469,318 Z M480,298 L502,298 L491,318 Z M502,298 L524,298 L513,318 Z M524,298 L546,298 L535,318 Z M546,298 L568,298 L557,318 Z " fill="#A07850"/><path d="M432,160 C432,94 528,94 528,160" fill="none" stroke="#0F0E0E" stroke-width="15" stroke-linecap="round"/><path d="M432,160 C432,94 528,94 528,160" fill="none" stroke="#A07850" stroke-width="8" stroke-linecap="round"/>
<rect x="330" y="374" width="300" height="96" rx="6" fill="#FFFFFF" stroke="#0F0E0E" stroke-width="3"/>
<text x="480" y="406" font-size="22" fill="#0F0E0E" text-anchor="middle"><tspan x="480" font-weight="700" fill="#4B4654">Label muzium</tspan><tspan x="480" dy="34" font-weight="400" fill="#0F0E0E">Beg bawaan harian</tspan></text>
<text x="690" y="462" font-size="84" font-weight="700" fill="#4E32B5" text-anchor="middle">?</text>
<path d="M58,28 H312 A18,18 0 0 1 330,46 V116 A18,18 0 0 1 312,134 H106 L92,154 L76,134 H58 A18,18 0 0 1 40,116 V46 A18,18 0 0 1 58,28 Z" fill="#FFFFFF" stroke="#0F0E0E" stroke-width="3" stroke-linejoin="round"/>
<text x="60" y="60" font-size="22" fill="#0F0E0E"><tspan x="60" font-weight="700" fill="#8C2548">Penjual</tspan><tspan x="60" dy="28">Untuk membawa</tspan><tspan x="60" dy="28">makanan dan buku</tspan></text>
<g transform="translate(92,270) scale(0.8)"><path d="M-9,-40 V-5 M9,-40 V-5" stroke="#0F0E0E" stroke-width="12" stroke-linecap="round"/><path d="M-21,-39 V-72 A21,21 0 0 1 21,-72 V-39 Q21,-34 15,-34 H-15 Q-21,-34 -21,-39 Z" fill="#4E32B5"/><path d="M-16,-80 L-24,-46" stroke="#4E32B5" stroke-width="10" stroke-linecap="round"/><circle cx="-24" cy="-46" r="5.5" fill="#E0AC69"/><path d="M16,-80 L46,-66" stroke="#4E32B5" stroke-width="10" stroke-linecap="round"/><circle cx="46" cy="-66" r="5.5" fill="#E0AC69"/><circle cx="0" cy="-110" r="16" fill="#E0AC69"/><path d="M-16.5,-111 A16.5,16.5 0 0 1 16.5,-111 Q0,-121 -16.5,-111 Z" fill="#0F0E0E"/><circle cx="-2.5" cy="-107" r="2.2" fill="#0F0E0E"/><circle cx="8.5" cy="-107" r="2.2" fill="#0F0E0E"/></g>
<path d="M644,28 H910 A18,18 0 0 1 928,46 V116 A18,18 0 0 1 910,134 H842 L830,154 L812,134 H644 A18,18 0 0 1 626,116 V46 A18,18 0 0 1 644,28 Z" fill="#FFFFFF" stroke="#0F0E0E" stroke-width="3" stroke-linejoin="round"/>
<text x="646" y="60" font-size="22" fill="#0F0E0E"><tspan x="646" font-weight="700" fill="#8C2548">Pemilik</tspan><tspan x="646" dy="28">Hadiah semasa saya</tspan><tspan x="646" dy="28">mula di sekolah baharu</tspan></text>
<g transform="translate(830,284) scale(0.8)"><path d="M-9,-40 V-5 M9,-40 V-5" stroke="#A07850" stroke-width="12" stroke-linecap="round"/><path d="M-21,-39 V-72 A21,21 0 0 1 21,-72 V-39 Q21,-34 15,-34 H-15 Q-21,-34 -21,-39 Z" fill="#1E4E94"/><path d="M-16,-80 L-46,-66" stroke="#1E4E94" stroke-width="10" stroke-linecap="round"/><circle cx="-46" cy="-66" r="5.5" fill="#8D5524"/><path d="M16,-80 L25,-46" stroke="#1E4E94" stroke-width="10" stroke-linecap="round"/><circle cx="25" cy="-46" r="5.5" fill="#8D5524"/><circle cx="0" cy="-110" r="16" fill="#8D5524"/><circle cx="-10" cy="-121" r="9" fill="#0F0E0E"/><circle cx="10" cy="-121" r="9" fill="#0F0E0E"/><circle cx="0" cy="-125" r="10" fill="#0F0E0E"/><path d="M-16.5,-111 A16.5,16.5 0 0 1 16.5,-111 Q0,-121 -16.5,-111 Z" fill="#0F0E0E"/><circle cx="-8.5" cy="-107" r="2.2" fill="#0F0E0E"/><circle cx="2.5" cy="-107" r="2.2" fill="#0F0E0E"/></g>
<path d="M58,280 H312 A18,18 0 0 1 330,298 V396 A18,18 0 0 1 312,414 H134 L120,424 L104,414 H58 A18,18 0 0 1 40,396 V298 A18,18 0 0 1 58,280 Z" fill="#FFFFFF" stroke="#0F0E0E" stroke-width="3" stroke-linejoin="round"/>
<text x="60" y="311" font-size="22" fill="#0F0E0E"><tspan x="60" font-weight="700" fill="#8C2548">Kumpulan kraf</tspan><tspan x="60" dy="28">Penganyam yang lebih</tspan><tspan x="60" dy="28">tua mengajar kami</tspan><tspan x="60" dy="28">corak ini</tspan></text>
<g transform="translate(66,510) scale(0.6)"><rect x="-19" y="-126" width="38" height="44" rx="17" fill="#7A4300"/><path d="M-9,-40 V-5 M9,-40 V-5" stroke="#1E4E94" stroke-width="12" stroke-linecap="round"/><path d="M-21,-39 V-72 A21,21 0 0 1 21,-72 V-39 Q21,-34 15,-34 H-15 Q-21,-34 -21,-39 Z" fill="#FDE68A"/><path d="M-16,-80 L-25,-46" stroke="#FDE68A" stroke-width="10" stroke-linecap="round"/><circle cx="-25" cy="-46" r="5.5" fill="#F1C27D"/><path d="M16,-80 L25,-46" stroke="#FDE68A" stroke-width="10" stroke-linecap="round"/><circle cx="25" cy="-46" r="5.5" fill="#F1C27D"/><circle cx="0" cy="-110" r="16" fill="#F1C27D"/><path d="M-16.5,-111 A16.5,16.5 0 0 1 16.5,-111 Q0,-121 -16.5,-111 Z" fill="#7A4300"/><circle cx="-3.5" cy="-107" r="2.2" fill="#0F0E0E"/><circle cx="7.5" cy="-107" r="2.2" fill="#0F0E0E"/></g>
<g transform="translate(174,510) scale(0.6)"><path d="M-9,-40 V-5 M9,-40 V-5" stroke="#4B4654" stroke-width="12" stroke-linecap="round"/><path d="M-21,-39 V-72 A21,21 0 0 1 21,-72 V-39 Q21,-34 15,-34 H-15 Q-21,-34 -21,-39 Z" fill="#8C2548"/><path d="M-16,-80 L-25,-46" stroke="#8C2548" stroke-width="10" stroke-linecap="round"/><circle cx="-25" cy="-46" r="5.5" fill="#C68642"/><path d="M16,-80 L25,-46" stroke="#8C2548" stroke-width="10" stroke-linecap="round"/><circle cx="25" cy="-46" r="5.5" fill="#C68642"/><circle cx="0" cy="-110" r="16" fill="#C68642"/><path d="M-16.5,-111 A16.5,16.5 0 0 1 16.5,-111 Q0,-121 -16.5,-111 Z" fill="#0F0E0E"/><circle cx="-3.5" cy="-107" r="2.2" fill="#0F0E0E"/><circle cx="7.5" cy="-107" r="2.2" fill="#0F0E0E"/></g>
<g transform="translate(120,510) scale(0.7)"><path d="M-9,-40 V-5 M9,-40 V-5" stroke="#0F0E0E" stroke-width="12" stroke-linecap="round"/><path d="M-21,-39 V-72 A21,21 0 0 1 21,-72 V-39 Q21,-34 15,-34 H-15 Q-21,-34 -21,-39 Z" fill="#3F6B35"/><path d="M-16,-80 L-25,-46" stroke="#3F6B35" stroke-width="10" stroke-linecap="round"/><circle cx="-25" cy="-46" r="5.5" fill="#8D5524"/><path d="M16,-80 L25,-46" stroke="#3F6B35" stroke-width="10" stroke-linecap="round"/><circle cx="25" cy="-46" r="5.5" fill="#8D5524"/><circle cx="0" cy="-110" r="16" fill="#8D5524"/><path d="M-16.5,-111 A16.5,16.5 0 0 1 16.5,-111 Q0,-121 -16.5,-111 Z" fill="#D5D1DC"/><circle cx="-3.5" cy="-107" r="2.2" fill="#0F0E0E"/><circle cx="7.5" cy="-107" r="2.2" fill="#0F0E0E"/></g>
</svg>
